# Blender 3.5.1
# www.blender.org
mtllib tiles.mtl
o 000-floor
v -0.500000 -0.500000 0.500000
v 0.500000 -0.500000 0.500000
v -0.500000 -0.500000 -0.500000
v 0.500000 -0.500000 -0.500000
vn -0.0000 1.0000 -0.0000
vt 0.000000 0.000000
vt 1.000000 0.000000
vt 0.000000 1.000000
vt 1.000000 1.000000
s 0
usemtl green
f 1/1/1 2/2/1 4/4/1 3/3/1
o 001-slope
v -0.500000 -0.500000 0.500000
v 0.500000 -0.500000 0.500000
v -0.500000 0.500000 -0.500000
v 0.500000 0.500000 -0.500000
vn -0.0000 0.7071 0.7071
vt 0.000000 0.000000
vt 1.000000 0.000000
vt 0.000000 1.000000
vt 1.000000 1.000000
s 0
usemtl green
f 5/5/2 6/6/2 8/8/2 7/7/2
o 002-corner
v -0.500000 -0.500000 0.500000
v 0.500000 -0.500000 0.500000
v -0.500000 0.500000 -0.500000
v 0.500000 -0.500000 -0.500000
vn -0.0000 0.7071 0.7071
vn 0.7071 0.7071 -0.0000
vt 0.000000 0.000000
vt 1.000000 0.000000
vt 0.000000 1.000000
vt 1.000000 1.000000
s 0
f 10/10/3 11/11/3 9/9/3
f 10/10/4 12/12/4 11/11/4
